#!OML:ASF X:\für Bonn\!DataBase\2005_08_10_Bjorn_Final\c3d\bjorn.ASF
:FULLY-SPECIFIED
:DEGREES
676
root -0.358931 1.29337 23.859 -469.685 -178.523 367.683
lowerback 23.8642 1.01794 0.903838
upperback 7.57053 0.0105393 -4.22579
thorax -4.93906 -0.564454 -5.07229
lowerneck -17.4337 -7.16453 -4.3715
upperneck 0.275383 -9.79805 8.60105
head 3.48434 -4.72038 2.51619
rclavicle -3.49861e-014 3.79679e-014
rhumerus -214.759 -161.508 114.635
rradius -0.12094
rwrist 60.0723
rhand -11.4316 1.83849
rfingers 7.12502
rthumb 14.6047 -27.6273
lclavicle -3.49861e-014 3.79679e-014
lhumerus -395.225 -37.0421 -282.702
lradius 14.1009
lwrist -39.0497
lhand -10.6722 -10.3628
lfingers 7.12502
lthumb 15.3362 19.0485
rfemur -26.1438 -17.0441 -12.497
rtibia 109.629
rfoot 36.6758 13.2272
rtoes -0.16304
lfemur -37.246 -4.62429 -0.540023
ltibia 119.64
lfoot 30.1188 -9.37978
ltoes 4.19234
677
root -0.358075 1.29448 23.8599 -469.681 -178.543 367.686
lowerback 23.8257 1.00999 0.916465
upperback 7.58098 0.00278492 -4.23995
thorax -4.90887 -0.567736 -5.09229
lowerneck -17.4137 -7.1457 -4.24935
upperneck 0.25164 -9.79802 8.55943
head 3.46594 -4.72412 2.48588
rclavicle -2.8625e-014 8.34896e-015
rhumerus -214.696 -161.422 114.716
rradius -0.0336861
rwrist 59.1193
rhand -11.6507 1.98834
rfingers 7.12502
rthumb 14.3935 -27.4926
lclavicle -2.8625e-014 8.34896e-015
lhumerus -395.005 -36.8113 -282.948
lradius 14.3271
lwrist -38.7922
lhand -10.1671 -10.4111
lfingers 7.12502
lthumb 15.8227 18.9623
rfemur -26.1267 -17.0874 -12.4923
rtibia 109.626
rfoot 36.6443 13.2518
rtoes -0.303833
lfemur -37.2329 -4.65121 -0.534127
ltibia 119.627
lfoot 30.0985 -9.37027
ltoes 4.14444
678
root -0.357485 1.29482 23.8592 -469.667 -178.541 367.681
lowerback 23.7766 1.0201 0.892658
upperback 7.58947 0.0120373 -4.23781
thorax -4.87445 -0.562567 -5.07766
lowerneck -17.3927 -7.13695 -4.16379
upperneck 0.2369 -9.80063 8.50486
head 3.45114 -4.72873 2.45695
rclavicle 4.13472e-014 9.93923e-016
rhumerus -214.602 -161.359 114.864
rradius 0.0426042
rwrist 58.1649
rhand -11.7834 2.15113
rfingers 7.12502
rthumb 14.2657 -27.3389
lclavicle 4.13472e-014 9.93923e-016
lhumerus -394.789 -36.5443 -283.16
lradius 14.5686
lwrist -38.5321
lhand -9.64899 -10.4371
lfingers 7.12502
lthumb 16.3216 18.8961
rfemur -26.1325 -17.1105 -12.5142
rtibia 109.629
rfoot 36.6578 13.2027
rtoes -0.160814
lfemur -37.2453 -4.67015 -0.540538
ltibia 119.63
lfoot 30.0973 -9.35613
ltoes 4.15662
679
root -0.357065 1.29483 23.8589 -469.672 -178.551 367.69
lowerback 23.7604 1.02107 0.899361
upperback 7.59309 0.0132445 -4.25478
thorax -4.86207 -0.562017 -5.10026
lowerneck -17.3254 -7.11277 -4.01693
upperneck 0.181785 -9.79647 8.44284
head 3.41336 -4.73311 2.41918
rclavicle -2.8625e-014 2.74323e-014
rhumerus -214.554 -161.298 115.023
rradius 0.157337
rwrist 57.3822
rhand -11.6806 2.34099
rfingers 7.12502
rthumb 14.3648 -27.142
lclavicle -2.8625e-014 2.74323e-014
lhumerus -394.588 -36.3028 -283.389
lradius 14.7984
lwrist -38.2739
lhand -9.14205 -10.4546
lfingers 7.12502
lthumb 16.8097 18.8378
rfemur -26.1208 -17.1539 -12.5286
rtibia 109.634
rfoot 36.6609 13.2303
rtoes -0.178657
lfemur -37.2475 -4.71203 -0.539424
ltibia 119.63
lfoot 30.0997 -9.34229
ltoes 4.1737
680
root -0.35584 1.29588 23.8596 -469.648 -178.564 367.675
lowerback 23.7121 1.02427 0.900998
upperback 7.5804 0.0206055 -4.26517
thorax -4.85103 -0.556694 -5.11398
lowerneck -17.2624 -7.09404 -3.92049
upperneck 0.153126 -9.79221 8.42089
head 3.38914 -4.73469 2.40059
rclavicle 7.95139e-015 -2.0276e-014
rhumerus -214.488 -161.248 115.164
rradius 0.243978
rwrist 56.6599
rhand -11.4661 2.38643
rfingers 7.12502
rthumb 14.5714 -27.0818
lclavicle 7.95139e-015 -2.0276e-014
lhumerus -394.262 -35.8876 -283.701
lradius 14.8473
lwrist -38.1927
lhand -8.77854 -10.507
lfingers 7.12502
lthumb 17.1596 18.7553
rfemur -26.1422 -17.1805 -12.5078
rtibia 109.636
rfoot 36.6295 13.24
rtoes -0.269089
lfemur -37.2658 -4.7211 -0.521209
ltibia 119.626
lfoot 30.1078 -9.35278
ltoes 4.19123
681
root -0.355707 1.29655 23.8598 -469.645 -178.568 367.685
lowerback 23.6708 1.02208 0.883174
upperback 7.59322 0.0146211 -4.26722
thorax -4.8171 -0.559108 -5.10335
lowerneck -17.2291 -7.07851 -3.83212
upperneck 0.115372 -9.78759 8.37967
head 3.36573 -4.73643 2.3768
rclavicle 3.81667e-014 -4.9895e-014
rhumerus -214.387 -161.223 115.338
rradius 0.371008
rwrist 55.8629
rhand -11.165 2.49245
rfingers 7.12502
rthumb 14.8615 -26.9545
lclavicle 3.81667e-014 -4.9895e-014
lhumerus -393.921 -35.452 -283.989
lradius 14.9067
lwrist -38.0612
lhand -8.40712 -10.5275
lfingers 7.12502
lthumb 17.5171 18.7033
rfemur -26.1303 -17.2101 -12.5299
rtibia 109.633
rfoot 36.6529 13.2105
rtoes -0.134094
lfemur -37.2699 -4.75195 -0.528779
ltibia 119.623
lfoot 30.107 -9.33913
ltoes 4.19789
682
root -0.355275 1.29675 23.8601 -469.636 -178.585 367.678
lowerback 23.6462 1.02396 0.891229
upperback 7.58212 0.0200139 -4.27948
thorax -4.81626 -0.555471 -5.12271
lowerneck -17.1447 -7.05923 -3.71128
upperneck 0.0711087 -9.78544 8.3349
head 3.3311 -4.74089 2.3484
rclavicle -3.33958e-014 4.05521e-014
rhumerus -214.524 -161.199 115.538
rradius 0.885999
rwrist 55.1633
rhand -10.5947 2.55455
rfingers 7.12502
rthumb 15.4109 -26.851
lclavicle -3.33958e-014 4.05521e-014
lhumerus -393.757 -35.3261 -284.105
lradius 15.0188
lwrist -37.6269
lhand -8.08393 -10.4841
lfingers 7.12502
lthumb 17.8281 18.7187
rfemur -26.1379 -17.2339 -12.5155
rtibia 109.634
rfoot 36.6454 13.1679
rtoes -0.170514
lfemur -37.2766 -4.77531 -0.515578
ltibia 119.622
lfoot 30.1193 -9.33434
ltoes 4.25279
683
root -0.354551 1.29761 23.8607 -469.63 -178.583 367.675
lowerback 23.6031 1.0316 0.860007
upperback 7.58994 0.0248749 -4.27321
thorax -4.78612 -0.552468 -5.09812
lowerneck -17.1024 -7.04326 -3.64329
upperneck 0.0217339 -9.77533 8.29902
head 3.30372 -4.74 2.33039
rclavicle -1.11319e-014 2.0276e-014
rhumerus -214.581 -161.191 115.753
rradius 1.34635
rwrist 54.4093
rhand -10.0689 2.63039
rfingers 7.12502
rthumb 15.9173 -26.7355
lclavicle -1.11319e-014 2.0276e-014
lhumerus -393.559 -35.1513 -284.209
lradius 15.0966
lwrist -37.2408
lhand -7.83952 -10.4547
lfingers 7.12502
lthumb 18.0632 18.7266
rfemur -26.1377 -17.2602 -12.5269
rtibia 109.634
rfoot 36.6317 13.1881
rtoes -0.247599
lfemur -37.262 -4.80264 -0.53062
ltibia 119.607
lfoot 30.1114 -9.32111
ltoes 4.23862
